<svg width="44.000000" height="44.000000" viewBox="0 0 44 44" fill="none" xmlns="http://www.w3.org/2000/svg" xmlns:xlink="http://www.w3.org/1999/xlink">
	<desc>
			Created with Pixso.
	</desc>
	<defs>
		<filter id="filter_20_35_dd" x="0.000000" y="0.000000" width="44.000000" height="44.000000" filterUnits="userSpaceOnUse" color-interpolation-filters="sRGB">
			<feFlood flood-opacity="0" result="BackgroundImageFix"/>
			<feGaussianBlur in="BackgroundImage" stdDeviation="5.12151"/>
			<feComposite in2="SourceAlpha" operator="in" result="effect_backgroundBlur_1"/>
			<feBlend mode="normal" in="SourceGraphic" in2="effect_backgroundBlur_1" result="shape"/>
		</filter>
	</defs>
	<g filter="url(#filter_20_35_dd)">
		<circle id="Ellipse 5" r="22.000000" transform="matrix(-1 1 0 0 22 22)" fill="#FFFFFF" fill-opacity="1.000000"/>
	</g>
	<circle id="Ellipse 5" r="21.615887" transform="matrix(-1 1 0 0 22 22)" stroke="#011C44" stroke-opacity="1.000000" stroke-width="0.768227"/>
	<path id="Arrow 1" d="M29.58 22L24.63 26.94C24.24 27.34 24.24 27.96 24.63 28.36C25.03 28.76 25.65 28.76 26.05 28.36L31.7 22.7C32.1 22.31 32.1 21.68 31.7 21.29L26.05 15.63C25.65 15.24 25.03 15.24 24.63 15.63C24.24 16.03 24.24 16.65 24.63 17.05L29.58 22Z" fill="#FFFFFF" fill-opacity="1.000000" fill-rule="nonzero"/>
	<path id="Arrow 1" d="M28.58 23L24.63 26.94C24.24 27.34 24.24 27.96 24.63 28.36C25.03 28.76 25.65 28.76 26.05 28.36L31.7 22.7C32.1 22.31 32.1 21.68 31.7 21.29L26.05 15.63C25.65 15.24 25.03 15.24 24.63 15.63C24.24 16.03 24.24 16.65 24.63 17.05L28.58 21L14.23 21L14.23 23L28.58 23Z" fill="#011C44" fill-opacity="1.000000" fill-rule="evenodd"/>
</svg>
