<svg width="24.000000" height="24.000000" viewBox="0 0 24 24" fill="none" xmlns="http://www.w3.org/2000/svg" xmlns:xlink="http://www.w3.org/1999/xlink">
	<desc>
			Created with Pixso.
	</desc>
	<defs>
		<clipPath id="clip76_775">
			<rect id="menu" width="24.000000" height="24.000000" fill="white" fill-opacity="0"/>
		</clipPath>
	</defs>
	<g clip-path="url(#clip76_775)">
		<path id="Vector" d="M22 18C22 18.55 21.55 19 21 19L12.99 19C12.73 19 12.47 18.89 12.29 18.7C12.1 18.52 12 18.26 12 18C12 17.74 12.1 17.48 12.29 17.3C12.47 17.11 12.73 17 12.99 17L21 17C21.55 17 22 17.45 22 18ZM22 12C22 12.54 21.55 12.99 21 12.99L2.99 12.99C2.73 12.99 2.47 12.89 2.29 12.7C2.1 12.51 2 12.26 2 12C2 11.73 2.1 11.48 2.29 11.29C2.47 11.1 2.73 11 2.99 11L21 11C21.55 11 22 11.45 22 12ZM21 6.99C21.26 6.99 21.52 6.88 21.7 6.69C21.89 6.51 22 6.25 22 5.99C22 5.73 21.89 5.47 21.7 5.29C21.52 5.1 21.26 5 21 5L8.99 5C8.86 5 8.73 5.02 8.61 5.07C8.49 5.12 8.38 5.19 8.29 5.29C8.19 5.38 8.12 5.49 8.07 5.61C8.02 5.73 8 5.86 8 5.99C8 6.12 8.02 6.25 8.07 6.37C8.12 6.49 8.19 6.6 8.29 6.69C8.38 6.79 8.49 6.86 8.61 6.91C8.73 6.96 8.86 6.99 8.99 6.99L21 6.99Z" fill="#FFFFFF" fill-opacity="1.000000" fill-rule="nonzero"/>
	</g>
</svg>
