<svg width="43.000000" height="34.000000" viewBox="0 0 43 34" fill="none" xmlns="http://www.w3.org/2000/svg" xmlns:xlink="http://www.w3.org/1999/xlink">
	<desc>
			Created with Pixso.
	</desc>
	<defs/>
	<path id="Vector" d="M13.1 10.57L-0.19 10.57C-0.6 10.57 -0.93 10.88 -0.93 11.28L-0.93 15.53C-0.93 15.92 -0.6 16.24 -0.19 16.24L0.55 16.24L0.55 32.53C0.55 32.92 0.88 33.24 1.29 33.24L11.63 33.24C12.03 33.24 12.36 32.92 12.36 32.53L12.36 29.7L12.36 19.07L12.36 16.24L13.1 16.24C13.51 16.24 13.84 15.92 13.84 15.53L13.84 11.28C13.84 10.88 13.51 10.57 13.1 10.57ZM4.98 24.03L4.98 22.61L9.41 22.61L9.41 21.2L4.98 21.2L4.98 19.78L10.89 19.78L10.89 28.99L4.98 28.99L4.98 25.45L6.46 25.45L6.46 24.03L4.98 24.03ZM10.89 18.36L4.24 18.36C3.83 18.36 3.5 18.68 3.5 19.07L3.5 29.7C3.5 30.09 3.83 30.41 4.24 30.41L10.89 30.41L10.89 31.82L2.03 31.82L2.03 16.24L10.89 16.24L10.89 18.36ZM12.36 14.82L11.63 14.82L1.29 14.82L0.55 14.82L0.55 11.98L12.36 11.98L12.36 14.82Z" fill="#2B7FFF" fill-opacity="1.000000" fill-rule="nonzero"/>
	<path id="Vector" d="M22.89 10.7L22.89 5.52C22.89 5.12 22.56 4.79 22.15 4.79L21.41 4.79L21.41 1.14L22.89 1.14L22.89 -0.31L14.76 -0.31L14.76 1.14L19.93 1.14L19.93 4.79L19.19 4.79C18.79 4.79 18.46 5.12 18.46 5.52L18.46 10.7C16.77 11.04 15.5 12.51 15.5 14.27L15.5 15.73L15.5 29.59L15.5 32.51C15.5 32.91 15.83 33.24 16.24 33.24L25.1 33.24C25.51 33.24 25.84 32.91 25.84 32.51L25.84 29.59L25.84 15.73L25.84 14.27C25.84 12.51 24.57 11.04 22.89 10.7ZM19.93 6.25L21.41 6.25L21.41 10.63L19.93 10.63L19.93 6.25ZM19.19 12.09L22.15 12.09C23.37 12.09 24.36 13.07 24.36 14.27L24.36 15L16.98 15L16.98 14.27C16.98 13.07 17.97 12.09 19.19 12.09ZM24.36 28.86L16.98 28.86L16.98 27.4L19.93 27.4L19.93 25.95L16.98 25.95L16.98 16.46L24.36 16.46L24.36 28.86ZM16.98 31.78L16.98 30.32L24.36 30.32L24.36 31.78L16.98 31.78Z" fill="#2B7FFF" fill-opacity="1.000000" fill-rule="nonzero"/>
	<path id="Vector" d="M41.76 9.66L29.3 9.66C28.92 9.66 28.61 9.98 28.61 10.38L28.61 32.53C28.61 32.92 28.92 33.24 29.3 33.24L41.76 33.24C42.15 33.24 42.46 32.92 42.46 32.53L42.46 10.38C42.46 9.98 42.15 9.66 41.76 9.66ZM41.07 31.81L30 31.81L30 11.09L41.07 11.09L41.07 31.81Z" fill="#2B7FFF" fill-opacity="1.000000" fill-rule="nonzero"/>
	<path id="Vector" d="M8.3 24.17L10.15 24.17L10.15 25.08L8.3 25.08L8.3 24.17Z" fill="#2B7FFF" fill-opacity="1.000000" fill-rule="evenodd"/>
	<path id="Vector" d="M21.23 25.98L23.07 25.98L23.07 27.8L21.23 27.8L21.23 25.98Z" fill="#2B7FFF" fill-opacity="1.000000" fill-rule="evenodd"/>
	<path id="Vector" d="M20.76 24.17C22.55 24.17 24 22.75 24 21C24 19.25 22.55 17.82 20.76 17.82C18.98 17.82 17.53 19.25 17.53 21C17.53 22.75 18.98 24.17 20.76 24.17ZM20.76 19.41C21.66 19.41 22.38 20.12 22.38 21C22.38 21.87 21.66 22.58 20.76 22.58C19.87 22.58 19.15 21.87 19.15 21C19.15 20.12 19.87 19.41 20.76 19.41Z" fill="#2B7FFF" fill-opacity="1.000000" fill-rule="nonzero"/>
	<path id="Vector" d="M33.8 16.92L37.26 16.92C38.6 16.92 39.69 15.9 39.69 14.65C39.69 13.4 38.6 12.38 37.26 12.38L33.8 12.38C32.47 12.38 31.38 13.4 31.38 14.65C31.38 15.9 32.47 16.92 33.8 16.92ZM38.3 14.65C38.3 15.18 37.84 15.62 37.26 15.62L36.23 15.62L36.23 13.68L37.26 13.68C37.84 13.68 38.3 14.11 38.3 14.65ZM33.8 13.68L34.84 13.68L34.84 15.62L33.8 15.62C33.23 15.62 32.76 15.18 32.76 14.65C32.76 14.11 33.23 13.68 33.8 13.68Z" fill="#2B7FFF" fill-opacity="1.000000" fill-rule="nonzero"/>
	<path id="Vector" d="M33.8 24.17L37.26 24.17C38.6 24.17 39.69 22.95 39.69 21.45C39.69 19.95 38.6 18.73 37.26 18.73L33.8 18.73C32.47 18.73 31.38 19.95 31.38 21.45C31.38 22.95 32.47 24.17 33.8 24.17ZM38.3 21.45C38.3 22.09 37.84 22.62 37.26 22.62L36.23 22.62L36.23 20.28L37.26 20.28C37.84 20.28 38.3 20.81 38.3 21.45ZM33.8 20.28L34.84 20.28L34.84 22.62L33.8 22.62C33.23 22.62 32.76 22.09 32.76 21.45C32.76 20.81 33.23 20.28 33.8 20.28Z" fill="#2B7FFF" fill-opacity="1.000000" fill-rule="nonzero"/>
	<path id="Vector" d="M33.8 30.52L37.26 30.52C38.6 30.52 39.69 29.3 39.69 27.8C39.69 26.3 38.6 25.08 37.26 25.08L33.8 25.08C32.47 25.08 31.38 26.3 31.38 27.8C31.38 29.3 32.47 30.52 33.8 30.52ZM38.3 27.8C38.3 28.44 37.84 28.96 37.26 28.96L36.23 28.96L36.23 26.63L37.26 26.63C37.84 26.63 38.3 27.16 38.3 27.8ZM33.8 26.63L34.84 26.63L34.84 28.96L33.8 28.96C33.23 28.96 32.76 28.44 32.76 27.8C32.76 27.16 33.23 26.63 33.8 26.63Z" fill="#2B7FFF" fill-opacity="1.000000" fill-rule="nonzero"/>
</svg>
