<svg width="43.000000" height="35.000000" viewBox="0 0 43 35" fill="none" xmlns="http://www.w3.org/2000/svg" xmlns:xlink="http://www.w3.org/1999/xlink">
	<desc>
			Created with Pixso.
	</desc>
	<defs/>
	<path id="Vector" d="M41.53 7.48C41.15 7.14 40.69 6.92 40.2 6.85C39.71 6.77 39.22 6.85 38.77 7.07L29.3 11.69C29.26 11.72 29.21 11.73 29.17 11.74C29.12 11.74 29.07 11.74 29.03 11.72C28.98 11.71 28.94 11.68 28.9 11.65C28.87 11.61 28.84 11.57 28.81 11.53L23.28 0.6C23.06 0.14 22.73 -0.23 22.32 -0.5C21.92 -0.76 21.46 -0.9 21 -0.9C20.53 -0.9 20.07 -0.76 19.66 -0.5C19.26 -0.23 18.93 0.14 18.71 0.6L13.18 11.53C13.15 11.57 13.12 11.61 13.09 11.65C13.05 11.68 13.01 11.71 12.96 11.72C12.92 11.74 12.87 11.74 12.82 11.74C12.78 11.73 12.73 11.72 12.69 11.69L3.22 7.07C2.77 6.85 2.28 6.77 1.79 6.84C1.3 6.91 0.84 7.13 0.47 7.47C0.09 7.82 -0.2 8.27 -0.35 8.78C-0.51 9.3 -0.53 9.85 -0.42 10.37L4.36 32.71C4.44 33.09 4.59 33.44 4.8 33.75C5.01 34.07 5.28 34.33 5.58 34.52C5.98 34.79 6.44 34.94 6.91 34.94C7.15 34.93 7.39 34.9 7.63 34.83C16.37 32.17 25.6 32.17 34.34 34.81C34.69 34.92 35.04 34.95 35.4 34.9C35.75 34.86 36.09 34.73 36.39 34.53C36.7 34.34 36.97 34.07 37.18 33.76C37.39 33.45 37.54 33.09 37.63 32.71L42.39 10.37C42.51 9.85 42.49 9.3 42.34 8.79C42.18 8.28 41.9 7.83 41.53 7.48ZM40.21 9.79L35.43 32.13C35.41 32.24 35.35 32.33 35.26 32.4C35.17 32.45 35.06 32.46 34.96 32.44C25.82 29.66 16.17 29.66 7.03 32.44C6.98 32.46 6.93 32.46 6.87 32.45C6.82 32.45 6.77 32.43 6.73 32.4C6.69 32.37 6.65 32.33 6.62 32.28C6.59 32.24 6.57 32.19 6.56 32.13L1.78 9.79C1.77 9.73 1.77 9.67 1.78 9.61C1.79 9.55 1.82 9.49 1.86 9.44C1.89 9.39 1.94 9.35 1.99 9.32C2.04 9.3 2.09 9.28 2.15 9.28L2.3 9.32L11.79 13.96C12.39 14.26 13.06 14.29 13.69 14.06C14.31 13.84 14.83 13.36 15.14 12.72L20.68 1.79C20.71 1.73 20.75 1.67 20.81 1.63C20.86 1.6 20.93 1.58 21 1.58C21.06 1.58 21.13 1.6 21.18 1.63C21.24 1.67 21.28 1.73 21.31 1.79L26.84 12.72C27.16 13.36 27.68 13.84 28.3 14.06C28.92 14.29 29.6 14.26 30.2 13.96L39.69 9.32C39.75 9.29 39.82 9.28 39.89 9.29C39.96 9.3 40.03 9.33 40.08 9.38C40.14 9.43 40.18 9.49 40.2 9.57C40.23 9.64 40.23 9.72 40.21 9.79ZM28.12 25.47C28.09 25.77 27.96 26.06 27.75 26.26C27.54 26.47 27.27 26.58 27 26.58L26.88 26.58C22.97 26.15 19.02 26.15 15.11 26.58C14.81 26.62 14.52 26.52 14.28 26.32C14.05 26.11 13.9 25.82 13.87 25.49C13.84 25.16 13.93 24.84 14.12 24.58C14.31 24.33 14.59 24.17 14.88 24.13C18.95 23.65 23.04 23.65 27.11 24.13C27.4 24.17 27.67 24.33 27.86 24.58C28.05 24.82 28.14 25.15 28.12 25.47Z" fill="#2B7FFF" fill-opacity="1.000000" fill-rule="nonzero"/>
</svg>
