<svg width="39.000000" height="43.000000" viewBox="0 0 39 43" fill="none" xmlns="http://www.w3.org/2000/svg" xmlns:xlink="http://www.w3.org/1999/xlink">
	<desc>
			Created with Pixso.
	</desc>
	<defs/>
	<path id="Vector" d="M19.09 -0.91C17.51 -0.91 16.04 -0.19 14.79 0.99C13.53 2.16 12.46 3.8 11.57 5.78C11.38 6.19 11.2 6.63 11.03 7.07C10.57 7 10.1 6.94 9.64 6.89C9.1 6.84 8.57 6.8 8.06 6.79C6.52 6.75 5.11 6.91 3.88 7.28C2.23 7.78 0.88 8.7 0.09 10.06C-0.7 11.43 -0.81 13.06 -0.42 14.73C-0.03 16.4 0.85 18.15 2.12 19.92C2.38 20.29 2.67 20.66 2.97 21.03C2.67 21.39 2.39 21.76 2.12 22.14C0.85 23.91 -0.03 25.65 -0.42 27.33C-0.81 29 -0.7 30.63 0.09 32C0.88 33.36 2.23 34.28 3.88 34.78C5.52 35.27 7.47 35.39 9.64 35.17C10.09 35.12 10.56 35.06 11.03 34.99C11.19 35.43 11.37 35.86 11.57 36.28C12.46 38.26 13.53 39.9 14.79 41.08C16.04 42.25 17.51 42.97 19.09 42.97C20.66 42.97 22.13 42.25 23.39 41.08C24.64 39.9 25.71 38.26 26.61 36.28C26.8 35.86 26.98 35.43 27.15 34.99C27.62 35.06 28.08 35.12 28.53 35.17C30.7 35.39 32.65 35.27 34.29 34.78C35.94 34.28 37.3 33.36 38.08 32C38.87 30.63 38.98 29 38.59 27.33C38.2 25.66 37.32 23.91 36.06 22.14C35.78 21.76 35.5 21.39 35.21 21.03C35.5 20.67 35.78 20.3 36.06 19.92C37.32 18.15 38.21 16.4 38.6 14.73C38.99 13.06 38.87 11.43 38.08 10.06C37.3 8.7 35.94 7.78 34.3 7.28C33.06 6.91 31.66 6.75 30.12 6.79C29.6 6.8 29.08 6.84 28.53 6.89C28.08 6.93 27.62 7 27.15 7.07C26.98 6.63 26.8 6.2 26.61 5.78C25.71 3.8 24.64 2.16 23.39 0.99C22.13 -0.19 20.66 -0.91 19.09 -0.91L19.09 -0.91ZM19.09 0.85C20.14 0.85 21.17 1.31 22.19 2.27C23.21 3.22 24.18 4.67 25.01 6.5C25.15 6.8 25.27 7.1 25.39 7.4C23.39 7.85 21.26 8.53 19.09 9.45C16.91 8.54 14.79 7.85 12.78 7.4C12.9 7.09 13.03 6.79 13.16 6.5C13.99 4.67 14.96 3.22 15.98 2.26C17.01 1.31 18.04 0.85 19.09 0.85L19.09 0.85ZM7.5 8.54C7.67 8.54 7.84 8.54 8.02 8.54C8.48 8.55 8.96 8.58 9.46 8.63C9.78 8.66 10.11 8.71 10.44 8.75C9.82 10.72 9.35 12.9 9.06 15.24C7.18 16.66 5.52 18.16 4.13 19.68C3.93 19.42 3.73 19.16 3.54 18.89C2.37 17.26 1.6 15.7 1.28 14.33C0.96 12.97 1.08 11.85 1.61 10.94C2.13 10.03 3.05 9.37 4.38 8.96C5.26 8.69 6.32 8.55 7.5 8.54L7.5 8.54ZM30.67 8.54C31.86 8.55 32.91 8.69 33.79 8.96C35.13 9.37 36.04 10.03 36.57 10.94C37.09 11.85 37.21 12.97 36.89 14.33C36.57 15.7 35.8 17.26 34.63 18.89C34.44 19.16 34.24 19.42 34.04 19.68C32.65 18.16 30.99 16.67 29.12 15.24C28.82 12.9 28.35 10.72 27.73 8.75C28.06 8.71 28.39 8.66 28.71 8.63C29.19 8.58 29.67 8.55 30.16 8.54C30.33 8.54 30.5 8.54 30.67 8.54L30.67 8.54ZM25.99 9.07C26.46 10.52 26.84 12.11 27.13 13.82C26.2 13.19 25.25 12.6 24.28 12.04C23.31 11.48 22.31 10.95 21.31 10.46C22.93 9.85 24.51 9.39 25.99 9.07L25.99 9.07ZM12.18 9.07C13.67 9.39 15.24 9.85 16.87 10.46C15.86 10.95 14.87 11.48 13.89 12.04C12.92 12.6 11.97 13.19 11.04 13.82C11.33 12.11 11.72 10.52 12.18 9.07ZM19.09 11.36C20.51 11.99 21.96 12.72 23.4 13.55C24.84 14.39 26.2 15.28 27.46 16.2C27.63 17.75 27.72 19.36 27.72 21.03C27.72 22.7 27.63 24.31 27.46 25.86C26.2 26.78 24.85 27.67 23.4 28.5C21.96 29.34 20.51 30.07 19.09 30.7C17.66 30.07 16.21 29.34 14.77 28.5C13.33 27.67 11.97 26.78 10.71 25.86C10.55 24.32 10.46 22.7 10.46 21.03C10.46 19.36 10.55 17.75 10.71 16.2C11.97 15.28 13.33 14.39 14.77 13.55C16.21 12.72 17.66 11.99 19.09 11.36L19.09 11.36ZM19.2 14L14.19 17.09L19.2 20.19L24.22 17.09L19.2 14L19.2 14ZM8.82 17.67C8.74 18.79 8.7 19.91 8.7 21.03C8.7 22.17 8.74 23.3 8.82 24.39C7.49 23.29 6.29 22.16 5.27 21.03C6.29 19.9 7.48 18.77 8.82 17.67ZM29.35 17.67C30.69 18.77 31.88 19.9 32.9 21.03C31.88 22.16 30.69 23.29 29.35 24.39C29.43 23.27 29.47 22.15 29.47 21.03C29.47 19.89 29.43 18.76 29.35 17.67L29.35 17.67ZM13.06 18.45L13.06 24.57L18.33 27.82L18.33 21.71L13.06 18.45ZM25.35 18.46L20.08 21.71L20.08 27.82L25.35 24.57L25.35 18.46L25.35 18.46ZM4.13 22.38C5.52 23.9 7.18 25.39 9.06 26.82C9.35 29.16 9.82 31.34 10.44 33.31C10.11 33.35 9.78 33.39 9.46 33.43C7.47 33.63 5.72 33.5 4.39 33.1C3.05 32.69 2.13 32.03 1.61 31.12C1.08 30.21 0.97 29.09 1.28 27.73C1.6 26.36 2.37 24.79 3.54 23.16C3.73 22.9 3.93 22.64 4.13 22.38ZM34.04 22.38C34.25 22.64 34.45 22.9 34.63 23.16C35.8 24.79 36.57 26.36 36.89 27.73C37.21 29.09 37.09 30.21 36.57 31.12C36.04 32.03 35.13 32.69 33.79 33.1C32.45 33.5 30.71 33.62 28.71 33.43C28.38 33.39 28.06 33.35 27.73 33.31C28.35 31.34 28.82 29.16 29.12 26.82C30.99 25.39 32.65 23.9 34.04 22.38L34.04 22.38ZM27.13 28.24C26.84 29.95 26.46 31.54 25.99 32.99C24.51 32.67 22.93 32.21 21.31 31.6C22.32 31.11 23.31 30.58 24.28 30.02C25.25 29.46 26.2 28.87 27.13 28.24L27.13 28.24ZM11.04 28.24C11.97 28.87 12.92 29.46 13.89 30.02C14.87 30.58 15.86 31.11 16.87 31.6C15.24 32.21 13.67 32.67 12.18 32.99C11.71 31.54 11.33 29.95 11.04 28.24ZM19.14 28.32L19.2 28.36L19.27 28.32L19.14 28.32L19.14 28.32ZM19.09 32.61C21.26 33.52 23.39 34.21 25.39 34.66C25.27 34.96 25.15 35.26 25.01 35.56C24.18 37.39 23.21 38.84 22.19 39.8C21.17 40.75 20.14 41.21 19.09 41.21C18.04 41.21 17.01 40.75 15.98 39.8C14.96 38.84 13.99 37.39 13.16 35.56C13.03 35.26 12.9 34.96 12.78 34.66C14.79 34.21 16.91 33.52 19.09 32.61L19.09 32.61Z" fill="#2B7FFF" fill-opacity="1.000000" fill-rule="nonzero"/>
</svg>
