<svg width="44.000000" height="44.000000" viewBox="0 0 44 44" fill="none" xmlns="http://www.w3.org/2000/svg" xmlns:xlink="http://www.w3.org/1999/xlink">
	<desc>
			Created with Pixso.
	</desc>
	<defs>
		<filter id="filter_20_10_dd" x="0.000000" y="0.000000" width="44.000000" height="44.000000" filterUnits="userSpaceOnUse" color-interpolation-filters="sRGB">
			<feFlood flood-opacity="0" result="BackgroundImageFix"/>
			<feGaussianBlur in="BackgroundImage" stdDeviation="5.12151"/>
			<feComposite in2="SourceAlpha" operator="in" result="effect_backgroundBlur_1"/>
			<feBlend mode="normal" in="SourceGraphic" in2="effect_backgroundBlur_1" result="shape"/>
		</filter>
	</defs>
	<g filter="url(#filter_20_10_dd)">
		<circle id="Ellipse 5" r="22.000000" transform="matrix(-1 1 0 0 22 22)" fill="#FFFFFF" fill-opacity="1.000000"/>
	</g>
	<circle id="Ellipse 5" r="21.615887" transform="matrix(-1 1 0 0 22 22)" stroke="#011C44" stroke-opacity="1.000000" stroke-width="0.768227"/>
	<path id="Arrow 1" d="M15.65 22L20.6 17.05C20.99 16.65 20.99 16.03 20.6 15.63C20.2 15.24 19.58 15.24 19.18 15.63L13.53 21.29C13.13 21.68 13.13 22.31 13.53 22.7L19.18 28.36C19.58 28.76 20.2 28.76 20.6 28.36C20.99 27.96 20.99 27.34 20.6 26.94L15.65 22Z" fill="#FFFFFF" fill-opacity="1.000000" fill-rule="nonzero"/>
	<path id="Arrow 1" d="M16.65 21L20.6 17.05C20.99 16.65 20.99 16.03 20.6 15.63C20.2 15.24 19.58 15.24 19.18 15.63L13.53 21.29C13.13 21.68 13.13 22.31 13.53 22.7L19.18 28.36C19.58 28.76 20.2 28.76 20.6 28.36C20.99 27.96 20.99 27.34 20.6 26.94L16.65 23L31 23L31 21L16.65 21Z" fill="#011C44" fill-opacity="1.000000" fill-rule="evenodd"/>
</svg>
