<svg aria-hidden="true" style="position: absolute; width: 0; height: 0; overflow: hidden;" version="1.1" xmlns="http://www.w3.org/2000/svg" xmlns:xlink="http://www.w3.org/1999/xlink">
<defs>
<symbol id="icon-Star-1" viewBox="0 0 32 32">
<path d="M6.691 0l3.491 14.32-10.183 10.657 14.32-3.491 10.657 10.183-3.491-14.32 10.183-10.657-14.32 3.491-10.657-10.183z"></path>
</symbol>
<symbol id="icon-Star-2" viewBox="0 0 32 32">
<path d="M24.978 0l-10.661 10.176-14.318-3.483 10.176 10.651-3.483 14.327 10.651-10.185 14.327 3.493-10.185-10.661 3.493-14.318z"></path>
</symbol>
<symbol id="icon-Star-3" viewBox="0 0 32 32">
<path fill="#747272" style="fill: var(--color1, #747272)" d="M8.491-0.939l1.579 13.675-10.667 8.704 13.675-1.6 8.683 10.667-1.579-13.675 10.667-8.683-13.675 1.579-8.683-10.667z"></path>
</symbol>
<symbol id="icon-telephone" viewBox="0 0 32 32">
<path d="M27.65 22.45l-0.17-0.21c-1.38-1.74-2.52-2.64-3.51-2.76-0.85-0.12-1.67 0.47-2.54 1.080l-0.94 0.58c-0.11 0.060-0.22 0.1-0.33 0.13-0.54 0.16-1.92 0.25-2.7-0.47-0.91-0.83-2.32-2.35-3.42-3.68-1.050-1.38-2.2-3.1-2.8-4.18-0.51-0.91-0.090-2.19 0.2-2.67 0.050-0.090 0.13-0.18 0.21-0.27l0.82-0.77c0.020-0.010 0.020-0.020 0.030-0.030s0.020-0.010 0.030-0.020c0.75-0.62 1.52-1.27 1.62-2.1 0.12-0.98-0.48-2.3-1.86-4.030l-0.16-0.22c-0.86-1.090-2.14-2.74-3.99-2.46-0.73 0.1-1.38 0.35-2.050 0.77 0 0.010-0.010 0.010-0.010 0.020-0.010 0-0.010 0-0.020 0.010l-0.93 0.69c-0.010 0-0.020 0.010-0.020 0.020-0.010 0.010-0.020 0.010-0.030 0.020-0.11 0.090-0.22 0.18-0.32 0.28-0.95 0.84-2.99 3.29-1.6 7.81 0.9 2.92 2.76 6.33 5.39 9.88l-0.030 0.020 1.45 1.81 0.020-0.010c2.84 3.37 5.74 5.98 8.4 7.55 1.78 1.060 3.32 1.41 4.6 1.41 1.68 0 2.88-0.61 3.48-1l0.38-0.25c0.040-0.030 0.070-0.070 0.1-0.11l0.83-0.62c0.010-0.010 0.010-0.020 0.020-0.030 0.010 0 0.010 0 0.020 0 0.59-0.54 0.99-1.1 1.27-1.77 0.74-1.7-0.57-3.34-1.44-4.42zM28.11 26.45c-0.22 0.52-0.54 0.96-1 1.39l-1.23 0.92c-1.11 0.72-3.49 1.62-6.94-0.43-2.66-1.58-5.58-4.25-8.46-7.71l-0.78-0.99c-2.71-3.59-4.62-7.040-5.52-9.95-1.17-3.8 0.31-5.83 1.29-6.71 0.1-0.090 0.2-0.18 0.3-0.26v0l0.9-0.67c0.54-0.34 1.050-0.53 1.63-0.62 1.24-0.19 2.24 1.12 2.98 2.070l0.18 0.22c1.53 1.94 1.68 2.86 1.63 3.23-0.050 0.42-0.68 0.96-1.24 1.43l-0.080 0.060c-0.010 0.010-0.010 0.010-0.010 0.010 0 0.010-0.010 0.010-0.010 0.010l-0.85 0.79c-0.010 0-0.010 0.010-0.020 0.020 0 0-0.010 0.010-0.020 0.010-0.13 0.15-0.24 0.3-0.34 0.45-0.47 0.8-0.93 2.46-0.21 3.74 0.62 1.12 1.8 2.89 2.89 4.32 1.14 1.38 2.59 2.95 3.54 3.81 0.7 0.64 1.68 0.86 2.53 0.86 0.46 0 0.87-0.060 1.19-0.15 0.17-0.050 0.34-0.12 0.52-0.21 0.010 0 0.010-0.010 0.020-0.020 0.010 0 0.020 0 0.020 0l0.99-0.62c0.030-0.020 0.050-0.050 0.080-0.080l0.010 0.010c0.61-0.42 1.31-0.91 1.74-0.84 0.39 0.040 1.26 0.42 2.8 2.36l0.18 0.22c0.75 0.94 1.77 2.21 1.29 3.33z"></path>
</symbol>
<symbol id="icon-Vector" viewBox="0 0 32 32">
<path d="M15.695-0.677c-1.176 0-2.27 0.536-3.2 1.414-0.938 0.871-1.734 2.091-2.396 3.565-0.141 0.305-0.275 0.633-0.402 0.96-0.342-0.052-0.692-0.097-1.034-0.134-0.402-0.037-0.796-0.067-1.176-0.074-1.146-0.030-2.195 0.089-3.111 0.365-1.228 0.372-2.233 1.057-2.82 2.069-0.588 1.020-0.67 2.233-0.38 3.475s0.945 2.545 1.89 3.862c0.194 0.275 0.409 0.551 0.633 0.826-0.223 0.268-0.432 0.543-0.633 0.826-0.945 1.317-1.6 2.612-1.89 3.862-0.29 1.243-0.208 2.456 0.38 3.475 0.588 1.012 1.593 1.697 2.82 2.069 1.22 0.365 2.672 0.454 4.287 0.29 0.335-0.037 0.685-0.082 1.034-0.134 0.119 0.327 0.253 0.647 0.402 0.96 0.662 1.474 1.459 2.694 2.396 3.572 0.93 0.871 2.024 1.407 3.2 1.407 1.168 0 2.262-0.536 3.2-1.407 0.93-0.878 1.727-2.099 2.396-3.572 0.141-0.313 0.275-0.633 0.402-0.96 0.35 0.052 0.692 0.097 1.027 0.134 1.615 0.164 3.066 0.074 4.287-0.29 1.228-0.372 2.24-1.057 2.82-2.069 0.588-1.020 0.67-2.233 0.38-3.475s-0.945-2.545-1.883-3.862c-0.208-0.283-0.417-0.558-0.633-0.826 0.216-0.268 0.424-0.543 0.633-0.826 0.938-1.317 1.6-2.62 1.89-3.862s0.201-2.456-0.387-3.475c-0.58-1.012-1.593-1.697-2.813-2.069-0.923-0.275-1.965-0.394-3.111-0.365-0.387 0.007-0.774 0.037-1.183 0.074-0.335 0.030-0.677 0.082-1.027 0.134-0.127-0.327-0.26-0.647-0.402-0.96-0.67-1.474-1.466-2.694-2.396-3.565-0.938-0.878-2.032-1.414-3.2-1.414v0zM15.695 0.633c0.781 0 1.548 0.342 2.307 1.057 0.759 0.707 1.481 1.786 2.099 3.148 0.104 0.223 0.194 0.447 0.283 0.67-1.488 0.335-3.073 0.841-4.688 1.526-1.622-0.677-3.2-1.191-4.696-1.526 0.089-0.231 0.186-0.454 0.283-0.67 0.618-1.362 1.34-2.441 2.099-3.155 0.767-0.707 1.533-1.049 2.314-1.049v0zM7.070 6.355c0.127 0 0.253 0 0.387 0 0.342 0.007 0.7 0.030 1.072 0.067 0.238 0.022 0.484 0.060 0.729 0.089-0.461 1.466-0.811 3.088-1.027 4.83-1.399 1.057-2.634 2.173-3.669 3.304-0.149-0.194-0.298-0.387-0.439-0.588-0.871-1.213-1.444-2.374-1.682-3.393-0.238-1.012-0.149-1.846 0.246-2.523 0.387-0.677 1.072-1.168 2.061-1.473 0.655-0.201 1.444-0.305 2.322-0.313v0zM24.313 6.355c0.886 0.007 1.667 0.112 2.322 0.313 0.997 0.305 1.674 0.796 2.069 1.474 0.387 0.677 0.476 1.511 0.238 2.523-0.238 1.020-0.811 2.18-1.682 3.393-0.141 0.201-0.29 0.394-0.439 0.588-1.034-1.131-2.27-2.24-3.661-3.304-0.223-1.741-0.573-3.364-1.034-4.83 0.246-0.030 0.491-0.067 0.729-0.089 0.357-0.037 0.714-0.060 1.079-0.067 0.127 0 0.253 0 0.38 0v0zM20.83 6.75c0.35 1.079 0.633 2.262 0.848 3.535-0.692-0.469-1.399-0.908-2.121-1.325s-1.466-0.811-2.21-1.176c1.206-0.454 2.381-0.796 3.483-1.034v0zM10.553 6.75c1.109 0.238 2.277 0.58 3.49 1.034-0.752 0.365-1.488 0.759-2.218 1.176-0.722 0.417-1.429 0.856-2.121 1.325 0.216-1.273 0.506-2.456 0.848-3.535zM15.695 8.454c1.057 0.469 2.136 1.012 3.207 1.63 1.072 0.625 2.084 1.287 3.021 1.972 0.127 1.153 0.194 2.352 0.194 3.594s-0.067 2.441-0.194 3.594c-0.938 0.685-1.942 1.347-3.021 1.965-1.072 0.625-2.151 1.168-3.207 1.637-1.064-0.469-2.143-1.012-3.215-1.637-1.072-0.618-2.084-1.28-3.021-1.965-0.119-1.146-0.186-2.352-0.186-3.594s0.067-2.441 0.186-3.594c0.938-0.685 1.95-1.347 3.021-1.972 1.072-0.618 2.151-1.161 3.215-1.63v0zM15.777 10.419l-3.728 2.3 3.728 2.307 3.736-2.307-3.736-2.3zM8.052 13.15c-0.060 0.834-0.089 1.667-0.089 2.5 0 0.848 0.030 1.689 0.089 2.5-0.99-0.819-1.883-1.66-2.642-2.5 0.759-0.841 1.645-1.682 2.642-2.5zM23.33 13.15c0.997 0.819 1.883 1.66 2.642 2.5-0.759 0.841-1.645 1.682-2.642 2.5 0.060-0.834 0.089-1.667 0.089-2.5 0-0.848-0.030-1.689-0.089-2.5v0zM11.207 13.73v4.554l3.922 2.419v-4.547l-3.922-2.426zM20.354 13.738l-3.922 2.419v4.547l3.922-2.419v-4.547zM4.562 16.655c1.034 1.131 2.27 2.24 3.669 3.304 0.216 1.741 0.566 3.364 1.027 4.83-0.246 0.030-0.491 0.060-0.729 0.089-1.481 0.149-2.783 0.052-3.773-0.246-0.997-0.305-1.682-0.796-2.069-1.474-0.394-0.677-0.476-1.511-0.246-2.523 0.238-1.020 0.811-2.188 1.682-3.401 0.141-0.194 0.29-0.387 0.439-0.58zM26.82 16.655c0.156 0.194 0.305 0.387 0.439 0.58 0.871 1.213 1.444 2.381 1.682 3.401 0.238 1.012 0.149 1.846-0.238 2.523-0.394 0.677-1.072 1.168-2.069 1.474-0.997 0.298-2.292 0.387-3.78 0.246-0.246-0.030-0.484-0.060-0.729-0.089 0.461-1.466 0.811-3.088 1.034-4.83 1.392-1.064 2.627-2.173 3.661-3.304v0zM21.678 21.016c-0.216 1.273-0.499 2.456-0.848 3.535-1.101-0.238-2.277-0.58-3.483-1.034 0.752-0.365 1.488-0.759 2.21-1.176s1.429-0.856 2.121-1.325v0zM9.704 21.016c0.692 0.469 1.399 0.908 2.121 1.325 0.729 0.417 1.466 0.811 2.218 1.176-1.213 0.454-2.381 0.796-3.49 1.034-0.35-1.079-0.633-2.262-0.848-3.535zM15.732 21.075l0.045 0.030 0.052-0.030h-0.097zM15.695 24.268c1.615 0.677 3.2 1.191 4.688 1.526-0.089 0.223-0.179 0.447-0.283 0.67-0.618 1.362-1.34 2.441-2.099 3.155-0.759 0.707-1.526 1.049-2.307 1.049s-1.548-0.342-2.314-1.049c-0.759-0.714-1.481-1.794-2.099-3.155-0.097-0.223-0.194-0.447-0.283-0.67 1.496-0.335 3.073-0.848 4.696-1.526v0z"></path>
</symbol>
<symbol id="icon-Arrow1" viewBox="0 0 32 32">
<path d="M0 32c0 0 7.163-7.163 16-16s16-16 16-16c0 0-7.163 7.163-16 16s-16 16-16 16z"></path>
<path stroke-linejoin="miter" stroke-linecap="butt" stroke-miterlimit="4" stroke-width="0.5587" d="M0.279 31.721c0 0 7.038-7.038 15.721-15.721s15.721-15.721 15.721-15.721c0 0-7.038 7.038-15.721 15.721s-15.721 15.721-15.721 15.721z"></path>
<path d="M11.382 16l3.6-3.6c0.284-0.291 0.284-0.742 0-1.033-0.291-0.284-0.742-0.284-1.033 0l-4.109 4.116c-0.291 0.284-0.291 0.742 0 1.025l4.109 4.116c0.291 0.291 0.742 0.291 1.033 0 0.284-0.291 0.284-0.742 0-1.033l-3.6-3.593z"></path>
<path d="M12.109 15.273l2.873-2.873c0.284-0.291 0.284-0.742 0-1.033-0.291-0.284-0.742-0.284-1.033 0l-4.109 4.116c-0.291 0.284-0.291 0.742 0 1.025l4.109 4.116c0.291 0.291 0.742 0.291 1.033 0 0.284-0.291 0.284-0.742 0-1.033l-2.873-2.865h10.436v-1.455h-10.436z"></path>
</symbol>
<symbol id="icon-Arrow2" viewBox="0 0 32 32">
<path d="M0 32c0 0 7.163-7.163 16-16s16-16 16-16c0 0-7.163 7.163-16 16s-16 16-16 16z"></path>
<path stroke-linejoin="miter" stroke-linecap="butt" stroke-miterlimit="4" stroke-width="0.5587" d="M0.279 31.721c0 0 7.038-7.038 15.721-15.721s15.721-15.721 15.721-15.721c0 0-7.038 7.038-15.721 15.721s-15.721 15.721-15.721 15.721z"></path>
<path d="M21.513 16l-3.6 3.593c-0.284 0.291-0.284 0.742 0 1.033 0.291 0.291 0.742 0.291 1.033 0l4.109-4.116c0.291-0.284 0.291-0.742 0-1.025l-4.109-4.116c-0.291-0.284-0.742-0.284-1.033 0-0.284 0.291-0.284 0.742 0 1.033l3.6 3.6z"></path>
<path d="M20.785 16.727l-2.873 2.865c-0.284 0.291-0.284 0.742 0 1.033 0.291 0.291 0.742 0.291 1.033 0l4.109-4.116c0.291-0.284 0.291-0.742 0-1.025l-4.109-4.116c-0.291-0.284-0.742-0.284-1.033 0-0.284 0.291-0.284 0.742 0 1.033l2.873 2.873h-10.436v1.455h10.436z"></path>
</symbol>
<symbol id="icon-crown" viewBox="0 0 39 32">
<path d="M37.97 6.839c-0.347-0.311-0.768-0.512-1.216-0.576-0.448-0.073-0.896 0-1.307 0.201l-8.658 4.224c-0.037 0.027-0.082 0.037-0.119 0.046-0.046 0-0.091 0-0.128-0.018-0.046-0.009-0.082-0.037-0.119-0.064-0.027-0.037-0.055-0.073-0.082-0.11l-5.056-9.993c-0.201-0.421-0.503-0.759-0.878-1.006-0.366-0.238-0.786-0.366-1.207-0.366-0.43 0-0.85 0.128-1.225 0.366-0.366 0.247-0.667 0.585-0.869 1.006l-5.056 9.993c-0.027 0.037-0.055 0.073-0.082 0.11-0.037 0.027-0.073 0.055-0.119 0.064-0.037 0.018-0.082 0.018-0.128 0.018-0.037-0.009-0.082-0.018-0.119-0.046l-8.658-4.224c-0.411-0.201-0.859-0.274-1.307-0.21s-0.869 0.265-1.207 0.576c-0.347 0.32-0.613 0.731-0.75 1.198-0.146 0.475-0.165 0.978-0.064 1.454l4.37 20.425c0.073 0.347 0.21 0.667 0.402 0.951 0.192 0.293 0.439 0.53 0.713 0.704 0.366 0.247 0.786 0.384 1.216 0.384 0.219-0.009 0.439-0.037 0.658-0.101 7.991-2.432 16.43-2.432 24.421-0.018 0.32 0.101 0.64 0.128 0.969 0.082 0.32-0.037 0.631-0.155 0.905-0.338 0.283-0.174 0.53-0.421 0.722-0.704s0.329-0.613 0.411-0.96l4.352-20.425c0.11-0.475 0.091-0.978-0.046-1.445-0.146-0.466-0.402-0.878-0.741-1.198zM36.763 8.951l-4.37 20.425c-0.018 0.101-0.073 0.183-0.155 0.247-0.082 0.046-0.183 0.055-0.274 0.037-8.357-2.542-17.179-2.542-25.536 0-0.046 0.018-0.091 0.018-0.146 0.009-0.046 0-0.091-0.018-0.128-0.046s-0.073-0.064-0.101-0.11c-0.027-0.037-0.046-0.082-0.055-0.137l-4.37-20.425c-0.009-0.055-0.009-0.11 0-0.165s0.037-0.11 0.073-0.155c0.027-0.046 0.073-0.082 0.119-0.11 0.046-0.018 0.091-0.037 0.146-0.037l0.137 0.037 8.677 4.242c0.549 0.274 1.161 0.302 1.737 0.091 0.567-0.201 1.042-0.64 1.326-1.225l5.065-9.993c0.027-0.055 0.064-0.11 0.119-0.146 0.046-0.027 0.11-0.046 0.174-0.046 0.055 0 0.119 0.018 0.165 0.046 0.055 0.037 0.091 0.091 0.119 0.146l5.056 9.993c0.293 0.585 0.768 1.024 1.335 1.225 0.567 0.21 1.189 0.183 1.737-0.091l8.677-4.242c0.055-0.027 0.119-0.037 0.183-0.027s0.128 0.037 0.174 0.082c0.055 0.046 0.091 0.101 0.11 0.174 0.027 0.064 0.027 0.137 0.009 0.201zM25.71 23.287c-0.027 0.274-0.146 0.539-0.338 0.722-0.192 0.192-0.439 0.293-0.686 0.293h-0.11c-3.575-0.393-7.186-0.393-10.761 0-0.274 0.037-0.539-0.055-0.759-0.238-0.21-0.192-0.347-0.457-0.375-0.759s0.055-0.594 0.229-0.832c0.174-0.229 0.43-0.375 0.695-0.411 3.721-0.439 7.461-0.439 11.182 0 0.265 0.037 0.512 0.183 0.686 0.411 0.174 0.219 0.256 0.521 0.238 0.814z"></path>
</symbol>
<symbol id="icon-Group-46194" viewBox="0 0 40 32">
<path d="M12.329 9.948h-12.508c-0.386 0-0.696 0.292-0.696 0.668v4c0 0.367 0.311 0.668 0.696 0.668h0.696v15.332c0 0.367 0.311 0.668 0.696 0.668h9.732c0.376 0 0.687-0.301 0.687-0.668v-15.332h0.696c0.386 0 0.696-0.301 0.696-0.668v-4c0-0.376-0.311-0.668-0.696-0.668zM4.687 22.616v-1.336h4.169v-1.327h-4.169v-1.336h5.562v8.668h-5.562v-3.332h1.393v-1.336h-1.393zM10.249 17.28h-6.259c-0.386 0-0.696 0.301-0.696 0.668v10.005c0 0.367 0.311 0.668 0.696 0.668h6.259v1.327h-8.339v-14.664h8.339v1.995zM11.633 13.948h-11.115v-2.673h11.115v2.673z"></path>
<path d="M21.544 10.071v-4.875c0-0.376-0.311-0.687-0.696-0.687h-0.696v-3.435h1.393v-1.365h-7.652v1.365h4.866v3.435h-0.696c-0.376 0-0.687 0.311-0.687 0.687v4.875c-1.591 0.32-2.786 1.704-2.786 3.36v17.167c0 0.376 0.311 0.687 0.696 0.687h8.339c0.386 0 0.696-0.311 0.696-0.687v-17.167c0-1.656-1.195-3.040-2.776-3.36zM18.758 5.882h1.393v4.122h-1.393v-4.122zM18.061 11.379h2.786c1.148 0 2.080 0.922 2.080 2.052v0.687h-6.946v-0.687c0-1.129 0.932-2.052 2.080-2.052zM22.927 27.162h-6.946v-1.374h2.776v-1.365h-2.776v-8.932h6.946v11.671zM15.981 29.911v-1.374h6.946v1.374h-6.946z"></path>
<path d="M39.304 9.092h-11.727c-0.358 0-0.649 0.301-0.649 0.678v20.847c0 0.367 0.292 0.668 0.649 0.668h11.727c0.367 0 0.659-0.301 0.659-0.668v-20.847c0-0.376-0.292-0.678-0.659-0.678zM38.654 29.939h-10.419v-19.501h10.419v19.501z"></path>
<path d="M7.812 22.748h1.741v0.856h-1.741v-0.856z"></path>
<path d="M19.981 24.452h1.732v1.713h-1.732v-1.713z"></path>
<path d="M19.539 22.748c1.685 0 3.049-1.336 3.049-2.984s-1.365-2.993-3.049-2.993c-1.675 0-3.040 1.346-3.040 2.993s1.365 2.984 3.040 2.984zM19.539 18.268c0.847 0 1.525 0.668 1.525 1.496 0 0.819-0.678 1.487-1.525 1.487-0.838 0-1.515-0.668-1.515-1.487 0-0.828 0.678-1.496 1.515-1.496z"></path>
<path d="M31.812 15.925h3.256c1.261 0 2.287-0.96 2.287-2.136s-1.026-2.136-2.287-2.136h-3.256c-1.252 0-2.278 0.96-2.278 2.136s1.026 2.136 2.278 2.136zM36.047 13.788c0 0.499-0.433 0.913-0.979 0.913h-0.969v-1.826h0.969c0.546 0 0.979 0.405 0.979 0.913zM31.812 12.875h0.979v1.826h-0.979c-0.536 0-0.979-0.414-0.979-0.913 0-0.508 0.442-0.913 0.979-0.913z"></path>
<path d="M31.812 22.748h3.256c1.261 0 2.287-1.148 2.287-2.56s-1.026-2.56-2.287-2.56h-3.256c-1.252 0-2.278 1.148-2.278 2.56s1.026 2.56 2.278 2.56zM36.047 20.188c0 0.602-0.433 1.101-0.979 1.101h-0.969v-2.202h0.969c0.546 0 0.979 0.499 0.979 1.101zM31.812 19.087h0.979v2.202h-0.979c-0.536 0-0.979-0.499-0.979-1.101s0.442-1.101 0.979-1.101z"></path>
<path d="M31.812 28.725h3.256c1.261 0 2.287-1.148 2.287-2.56s-1.026-2.56-2.287-2.56h-3.256c-1.252 0-2.278 1.148-2.278 2.56s1.026 2.56 2.278 2.56zM36.047 26.165c0 0.602-0.433 1.092-0.979 1.092h-0.969v-2.193h0.969c0.546 0 0.979 0.499 0.979 1.101zM31.812 25.064h0.979v2.193h-0.979c-0.536 0-0.979-0.489-0.979-1.092s0.442-1.101 0.979-1.101z"></path>
</symbol>
<symbol id="icon-instagram" viewBox="0 0 32 32">
<path d="M16 9.75c-1.14 0-2.25 0.33-3.2 0.96-0.95 0.64-1.68 1.53-2.12 2.58-0.43 1.060-0.55 2.21-0.32 3.33 0.22 1.11 0.76 2.14 1.57 2.94 0.8 0.81 1.83 1.35 2.94 1.57 1.12 0.23 2.27 0.11 3.33-0.32 1.050-0.44 1.94-1.17 2.58-2.12 0.63-0.95 0.97-2.060 0.97-3.19 0-1.53-0.61-2.99-1.69-4.070s-2.54-1.68-4.060-1.68zM16 19.75c-0.85 0-1.67-0.25-2.37-0.72s-1.24-1.13-1.56-1.91c-0.32-0.78-0.41-1.63-0.24-2.45 0.16-0.83 0.57-1.59 1.16-2.18s1.35-1 2.18-1.16c0.82-0.17 1.67-0.080 2.45 0.24s1.44 0.86 1.91 1.56c0.47 0.7 0.72 1.52 0.72 2.37-0.010 1.12-0.46 2.2-1.25 3-0.8 0.79-1.88 1.24-3 1.25zM21.5 3.25h-11c-1.8 0-3.51 0.71-4.78 1.97-1.26 1.27-1.97 2.98-1.97 4.78v11c0 1.79 0.71 3.5 1.97 4.77 1.27 1.26 2.98 1.98 4.78 1.98h11c1.79 0 3.5-0.72 4.77-1.98 1.26-1.27 1.98-2.98 1.98-4.77v-11c0-1.8-0.72-3.51-1.98-4.78-1.27-1.26-2.98-1.97-4.77-1.97zM26.75 21c0 1.39-0.56 2.72-1.54 3.71-0.99 0.98-2.32 1.54-3.71 1.54h-11c-1.4 0-2.73-0.56-3.72-1.54-0.98-0.99-1.53-2.32-1.53-3.71v-11c0-1.4 0.55-2.73 1.53-3.72 0.99-0.98 2.32-1.53 3.72-1.53h11c1.39 0 2.72 0.55 3.71 1.53 0.98 0.99 1.54 2.32 1.54 3.72v11zM23.75 9c0 0.24-0.080 0.48-0.22 0.69-0.13 0.2-0.33 0.37-0.56 0.46-0.22 0.090-0.48 0.12-0.72 0.070s-0.46-0.17-0.64-0.34c-0.17-0.18-0.29-0.4-0.34-0.64s-0.020-0.49 0.070-0.72c0.090-0.23 0.26-0.43 0.46-0.56 0.21-0.14 0.45-0.21 0.7-0.21 0.33 0 0.64 0.13 0.88 0.36 0.23 0.24 0.37 0.55 0.37 0.89z"></path>
</symbol>
<symbol id="icon-facebook" viewBox="0 0 32 32">
<path d="M23.98 1.62c-1.34-0.14-2.69-0.21-4.050-0.21-4.48 0-7.27 2.86-7.27 7.46v3.12h-3.77c-0.17 0-0.34 0.070-0.47 0.19-0.12 0.13-0.19 0.3-0.19 0.48v5.13c0 0.18 0.070 0.35 0.19 0.47 0.13 0.13 0.3 0.2 0.47 0.2h3.77v10.29c0 0.18 0.070 0.35 0.2 0.47 0.12 0.13 0.29 0.2 0.47 0.2h5.3c0.18 0 0.35-0.070 0.47-0.2 0.13-0.12 0.2-0.29 0.2-0.47v-10.29h3.75c0.17 0 0.32-0.060 0.44-0.17 0.13-0.11 0.2-0.25 0.23-0.41l0.66-5.14c0.010-0.090 0-0.19-0.030-0.28-0.020-0.090-0.070-0.17-0.13-0.24s-0.14-0.13-0.23-0.17c-0.080-0.040-0.18-0.060-0.27-0.060h-4.42v-2.61c0-1.3 0.26-1.84 1.88-1.84h2.71c0.18 0 0.35-0.070 0.48-0.19 0.12-0.13 0.19-0.3 0.19-0.47v-4.6c0-0.16-0.060-0.31-0.16-0.44-0.11-0.12-0.26-0.2-0.42-0.22zM23.23 6.21h-2.050c-2.88 0-3.21 1.81-3.21 3.17v3.28c0 0.17 0.070 0.34 0.19 0.47 0.13 0.12 0.29 0.19 0.47 0.19h4.33l-0.49 3.8h-3.84c-0.17 0-0.34 0.070-0.47 0.2-0.12 0.12-0.19 0.29-0.19 0.47v10.29h-3.97v-10.29c0-0.18-0.080-0.35-0.2-0.47-0.13-0.13-0.29-0.2-0.47-0.2h-3.77v-3.8h3.77c0.18 0 0.34-0.070 0.47-0.19 0.12-0.13 0.2-0.3 0.2-0.47v-3.79c0-3.83 2.22-6.12 5.93-6.12 1.35 0 2.56 0.070 3.3 0.14v3.32z"></path>
</symbol>
</defs>
</svg>
